<svg xmlns="http://www.w3.org/2000/svg" viewBox="0 0 800 500">
  <defs>
    <linearGradient id="axleGrad" x1="0" y1="0" x2="0" y2="1">
      <stop offset="0%" stop-color="#94a3b8"/>
      <stop offset="40%" stop-color="#64748b"/>
      <stop offset="100%" stop-color="#475569"/>
    </linearGradient>
  </defs>

  <!-- Background -->
  <rect width="800" height="500" fill="#0f172a"/>
  <pattern id="grid" width="25" height="25" patternUnits="userSpaceOnUse">
    <path d="M 25 0 L 0 0 0 25" fill="none" stroke="#1e293b" stroke-width="0.5"/>
  </pattern>
  <rect width="800" height="500" fill="url(#grid)"/>

  <!-- Title bar -->
  <rect x="0" y="0" width="800" height="48" fill="rgba(0,0,0,0.6)"/>
  <text x="24" y="32" fill="#f97316" font-family="Arial, Helvetica, sans-serif" font-size="20" font-weight="bold">AXLE</text>
  <text x="100" y="32" fill="#94a3b8" font-family="Arial, Helvetica, sans-serif" font-size="14">Model Identification Guide</text>

  <!-- ===== METHOD 1: Read the engraved letter ===== -->
  <text x="220" y="85" fill="#e2e8f0" font-family="Arial, Helvetica, sans-serif" font-size="15" font-weight="bold" text-anchor="middle">METHOD 1: READ THE MARKING</text>
  <rect x="75" y="90" width="290" height="3" rx="1" fill="#3b82f6"/>

  <!-- Axle shaft close-up with engraved letter -->
  <rect x="60" y="120" width="320" height="55" rx="27" fill="url(#axleGrad)" stroke="#94a3b8" stroke-width="2"/>
  <!-- Center highlight -->
  <line x1="90" y1="140" x2="350" y2="140" stroke="#cbd5e1" stroke-width="0.8" opacity="0.3"/>

  <!-- Engraved letter/model on the axle surface -->
  <rect x="155" y="128" width="80" height="30" rx="4" fill="none" stroke="#f97316" stroke-width="2.5" stroke-dasharray="0"/>
  <text x="195" y="152" fill="#e2e8f0" font-family="'Courier New', monospace" font-size="20" font-weight="bold" text-anchor="middle">K</text>

  <!-- Zoom magnifier effect -->
  <circle cx="195" cy="147" r="50" fill="none" stroke="#f97316" stroke-width="1.5" stroke-dasharray="4,3"/>
  <line x1="230" y1="115" x2="280" y2="95" stroke="#f97316" stroke-width="1.5"/>

  <!-- Callout for method 1 -->
  <rect x="60" y="190" width="320" height="75" rx="8" fill="#1e293b" stroke="#334155" stroke-width="1.5"/>
  <text x="80" y="215" fill="#3b82f6" font-family="Arial, Helvetica, sans-serif" font-size="12" font-weight="bold">LOOK FOR ENGRAVING</text>
  <line x1="80" y1="225" x2="350" y2="225" stroke="#334155" stroke-width="1"/>
  <text x="80" y="243" fill="#94a3b8" font-family="Arial, Helvetica, sans-serif" font-size="11">Check the axle surface for a stamped or</text>
  <text x="80" y="259" fill="#94a3b8" font-family="Arial, Helvetica, sans-serif" font-size="11">engraved letter indicating the model/type.</text>

  <!-- ===== METHOD 2: Look inside for color ===== -->
  <text x="580" y="85" fill="#e2e8f0" font-family="Arial, Helvetica, sans-serif" font-size="15" font-weight="bold" text-anchor="middle">METHOD 2: CHECK INSIDE COLOR</text>
  <rect x="435" y="90" width="290" height="3" rx="1" fill="#f97316"/>

  <!-- Axle end view (cross-section) showing color inside -->
  <!-- Outer ring -->
  <circle cx="580" cy="150" r="45" fill="url(#axleGrad)" stroke="#94a3b8" stroke-width="2.5"/>
  <!-- Inner bore with color -->
  <circle cx="580" cy="150" r="22" fill="#dc2626" stroke="#b91c1c" stroke-width="2"/>
  <!-- Arrow pointing to colored inner -->
  <line x1="630" y1="140" x2="604" y2="147" stroke="#f97316" stroke-width="2"/>
  <polygon points="604,143 604,151 596,147" fill="#f97316"/>
  <text x="635" y="138" fill="#f97316" font-family="Arial, Helvetica, sans-serif" font-size="12" font-weight="bold">Color inside</text>

  <!-- Callout for method 2 -->
  <rect x="420" y="210" width="320" height="75" rx="8" fill="#1e293b" stroke="#334155" stroke-width="1.5"/>
  <text x="440" y="235" fill="#f97316" font-family="Arial, Helvetica, sans-serif" font-size="12" font-weight="bold">LOOK INSIDE THE AXLE END</text>
  <line x1="440" y1="245" x2="710" y2="245" stroke="#334155" stroke-width="1"/>
  <text x="440" y="263" fill="#94a3b8" font-family="Arial, Helvetica, sans-serif" font-size="11">Look at the inside of the hollow axle.</text>
  <text x="440" y="279" fill="#94a3b8" font-family="Arial, Helvetica, sans-serif" font-size="11">The inner color identifies the axle type.</text>

  <!-- ===== Common axle types legend ===== -->
  <rect x="100" y="310" width="600" height="130" rx="8" fill="#1e293b" stroke="#334155" stroke-width="1.5"/>
  <text x="400" y="338" fill="#e2e8f0" font-family="Arial, Helvetica, sans-serif" font-size="13" font-weight="bold" text-anchor="middle">COMMON AXLE TYPES (EXAMPLE)</text>
  <line x1="130" y1="348" x2="670" y2="348" stroke="#334155" stroke-width="1"/>

  <!-- Row 1 -->
  <rect x="130" y="360" width="18" height="18" rx="3" fill="#94a3b8" stroke="#64748b" stroke-width="1"/>
  <text x="130" y="393" fill="#64748b" font-family="Arial, Helvetica, sans-serif" font-size="9" text-anchor="start">No color</text>
  <text x="158" y="374" fill="#94a3b8" font-family="Arial, Helvetica, sans-serif" font-size="11">N — Neutral (standard)</text>

  <rect x="130" y="400" width="18" height="18" rx="3" fill="#3b82f6" stroke="#2563eb" stroke-width="1"/>
  <text x="158" y="414" fill="#94a3b8" font-family="Arial, Helvetica, sans-serif" font-size="11">K — Soft</text>

  <rect x="380" y="360" width="18" height="18" rx="3" fill="#ef4444" stroke="#dc2626" stroke-width="1"/>
  <text x="408" y="374" fill="#94a3b8" font-family="Arial, Helvetica, sans-serif" font-size="11">H — Hard / Stiff</text>

  <rect x="380" y="400" width="18" height="18" rx="3" fill="#22c55e" stroke="#16a34a" stroke-width="1"/>
  <text x="408" y="414" fill="#94a3b8" font-family="Arial, Helvetica, sans-serif" font-size="11">P — Extra soft</text>

  <text x="400" y="435" fill="#475569" font-family="Arial, Helvetica, sans-serif" font-size="10" text-anchor="middle">Codes and colors vary by manufacturer — check your chassis brand's documentation</text>

  <!-- Bottom bar -->
  <rect x="0" y="460" width="800" height="40" fill="rgba(0,0,0,0.5)"/>
  <text x="24" y="485" fill="#64748b" font-family="Arial, Helvetica, sans-serif" font-size="11">Axle Model Identification</text>
  <text x="700" y="485" fill="#475569" font-family="Arial, Helvetica, sans-serif" font-size="11" text-anchor="end">Setup Guide</text>
</svg>