<svg xmlns="http://www.w3.org/2000/svg" viewBox="0 0 800 500">
  <defs>
    <marker id="aO" markerWidth="10" markerHeight="7" refX="9" refY="3.5" orient="auto">
      <polygon points="0 0, 10 3.5, 0 7" fill="#f97316"/>
    </marker>
    <marker id="aOR" markerWidth="10" markerHeight="7" refX="1" refY="3.5" orient="auto-start-reverse">
      <polygon points="0 0, 10 3.5, 0 7" fill="#f97316"/>
    </marker>
  </defs>

  <!-- Background -->
  <rect width="800" height="500" fill="#0f172a"/>
  <pattern id="grid" width="25" height="25" patternUnits="userSpaceOnUse">
    <path d="M 25 0 L 0 0 0 25" fill="none" stroke="#1e293b" stroke-width="0.5"/>
  </pattern>
  <rect width="800" height="500" fill="url(#grid)"/>

  <!-- Title bar -->
  <rect x="0" y="0" width="800" height="48" fill="rgba(0,0,0,0.6)"/>
  <text x="24" y="32" fill="#f97316" font-family="Arial, Helvetica, sans-serif" font-size="20" font-weight="bold">REAR TRACK WIDTH</text>
  <text x="290" y="32" fill="#94a3b8" font-family="Arial, Helvetica, sans-serif" font-size="14">Measurement Guide</text>

  <!-- TOP-DOWN VIEW of rear section -->

  <!-- Chassis rails (top view) -->
  <rect x="340" y="80" width="12" height="320" rx="3" fill="#475569" stroke="#64748b" stroke-width="1.5"/>
  <rect x="448" y="80" width="12" height="320" rx="3" fill="#475569" stroke="#64748b" stroke-width="1.5"/>

  <!-- Cross members -->
  <rect x="340" y="120" width="120" height="8" rx="2" fill="#334155" stroke="#475569" stroke-width="1"/>
  <rect x="340" y="350" width="120" height="8" rx="2" fill="#334155" stroke="#475569" stroke-width="1"/>

  <!-- Rear axle (full width) -->
  <rect x="100" y="230" width="600" height="10" rx="4" fill="#64748b" stroke="#94a3b8" stroke-width="1.5"/>

  <!-- Bearing housings -->
  <rect x="320" y="220" width="30" height="30" rx="4" fill="#334155" stroke="#475569" stroke-width="2"/>
  <rect x="450" y="220" width="30" height="30" rx="4" fill="#334155" stroke="#475569" stroke-width="2"/>

  <!-- Left rear hub + wheel -->
  <rect x="80" y="200" width="50" height="70" rx="6" fill="#334155" stroke="#475569" stroke-width="2"/>
  <rect x="55" y="190" width="30" height="90" rx="4" fill="none" stroke="#475569" stroke-width="3"/>
  <text x="70" y="240" fill="#64748b" font-family="Arial, Helvetica, sans-serif" font-size="9" text-anchor="middle">TIRE</text>

  <!-- Right rear hub + wheel -->
  <rect x="670" y="200" width="50" height="70" rx="6" fill="#334155" stroke="#475569" stroke-width="2"/>
  <rect x="715" y="190" width="30" height="90" rx="4" fill="none" stroke="#475569" stroke-width="3"/>
  <text x="730" y="240" fill="#64748b" font-family="Arial, Helvetica, sans-serif" font-size="9" text-anchor="middle">TIRE</text>

  <!-- MEASUREMENT: Track Width -->
  <!-- Center-to-center dimension -->
  <line x1="105" y1="310" x2="105" y2="330" stroke="#f97316" stroke-width="1.5" stroke-dasharray="4,3"/>
  <line x1="695" y1="310" x2="695" y2="330" stroke="#f97316" stroke-width="1.5" stroke-dasharray="4,3"/>
  <line x1="110" y1="320" x2="690" y2="320" stroke="#f97316" stroke-width="2.5" marker-start="url(#aOR)" marker-end="url(#aO)"/>

  <!-- Width label -->
  <rect x="340" y="305" width="120" height="30" rx="6" fill="#f97316" opacity="0.15" stroke="#f97316" stroke-width="1.5"/>
  <text x="400" y="326" fill="#f97316" font-family="Arial, Helvetica, sans-serif" font-size="15" font-weight="bold" text-anchor="middle">Width [cm]</text>

  <!-- Centerline markers -->
  <circle cx="105" cy="235" r="4" fill="#f97316"/>
  <circle cx="695" cy="235" r="4" fill="#f97316"/>
  <text x="105" y="185" fill="#f97316" font-family="Arial, Helvetica, sans-serif" font-size="10" text-anchor="middle">CENTER</text>
  <text x="695" y="185" fill="#f97316" font-family="Arial, Helvetica, sans-serif" font-size="10" text-anchor="middle">CENTER</text>

  <!-- TOP VIEW label -->
  <text x="400" y="420" fill="#475569" font-family="Arial, Helvetica, sans-serif" font-size="12" text-anchor="middle">TOP VIEW — REAR SECTION</text>

  <!-- Callout box -->
  <rect x="30" y="60" width="250" height="110" rx="8" fill="#1e293b" stroke="#334155" stroke-width="1.5"/>
  <text x="50" y="88" fill="#e2e8f0" font-family="Arial, Helvetica, sans-serif" font-size="13" font-weight="bold">HOW TO MEASURE</text>
  <line x1="50" y1="98" x2="250" y2="98" stroke="#334155" stroke-width="1"/>
  <text x="50" y="118" fill="#94a3b8" font-family="Arial, Helvetica, sans-serif" font-size="12">Measure center-to-center distance</text>
  <text x="50" y="136" fill="#94a3b8" font-family="Arial, Helvetica, sans-serif" font-size="12">between rear wheel hubs. Use a</text>
  <text x="50" y="154" fill="#94a3b8" font-family="Arial, Helvetica, sans-serif" font-size="12">tape measure across the rear axle.</text>

  <!-- Bottom bar -->
  <rect x="0" y="460" width="800" height="40" fill="rgba(0,0,0,0.5)"/>
  <text x="24" y="485" fill="#64748b" font-family="Arial, Helvetica, sans-serif" font-size="11">Rear Track Width</text>
  <text x="700" y="485" fill="#475569" font-family="Arial, Helvetica, sans-serif" font-size="11" text-anchor="end">Setup Guide</text>
</svg>