<svg xmlns="http://www.w3.org/2000/svg" viewBox="0 0 800 500">
  <defs>
    <linearGradient id="spindleGrad" x1="0" y1="0" x2="0" y2="1">
      <stop offset="0%" stop-color="#cbd5e1"/>
      <stop offset="40%" stop-color="#94a3b8"/>
      <stop offset="100%" stop-color="#64748b"/>
    </linearGradient>
    <linearGradient id="shaftGrad" x1="0" y1="0" x2="0" y2="1">
      <stop offset="0%" stop-color="#e2e8f0"/>
      <stop offset="50%" stop-color="#94a3b8"/>
      <stop offset="100%" stop-color="#64748b"/>
    </linearGradient>
    <linearGradient id="cjointGrad" x1="0" y1="0" x2="1" y2="1">
      <stop offset="0%" stop-color="#94a3b8"/>
      <stop offset="100%" stop-color="#475569"/>
    </linearGradient>
  </defs>

  <!-- Background -->
  <rect width="800" height="500" fill="#0f172a"/>
  <pattern id="grid" width="25" height="25" patternUnits="userSpaceOnUse">
    <path d="M 25 0 L 0 0 0 25" fill="none" stroke="#1e293b" stroke-width="0.5"/>
  </pattern>
  <rect width="800" height="500" fill="url(#grid)"/>

  <!-- Title bar -->
  <rect x="0" y="0" width="800" height="48" fill="rgba(0,0,0,0.6)"/>
  <text x="24" y="32" fill="#f97316" font-family="Arial, Helvetica, sans-serif" font-size="20" font-weight="bold">SPINDLE</text>
  <text x="140" y="32" fill="#94a3b8" font-family="Arial, Helvetica, sans-serif" font-size="14">Type Identification Guide</text>

  <!-- ===== Central spindle illustration (large, realistic L-shape) ===== -->
  <g transform="translate(460, 100)">

    <!-- Horizontal stub axle shaft (top, where hub mounts) — the bigger part -->
    <rect x="0" y="0" width="200" height="30" rx="15" fill="url(#shaftGrad)" stroke="#94a3b8" stroke-width="2"/>
    <!-- Shaft highlight -->
    <line x1="20" y1="9" x2="190" y2="9" stroke="white" stroke-width="1.2" opacity="0.3"/>
    <line x1="25" y1="14" x2="185" y2="14" stroke="white" stroke-width="0.6" opacity="0.15"/>
    <!-- Shaft end cap (right) -->
    <ellipse cx="200" cy="15" rx="5" ry="15" fill="#94a3b8" stroke="#64748b" stroke-width="1.5"/>
    <!-- Cotter pin hole at shaft tip -->
    <circle cx="185" cy="15" r="3" fill="#475569" stroke="#64748b" stroke-width="0.8"/>

    <!-- C-Joint / kingpin area (at the bend — smaller compact block) -->
    <rect x="-20" y="-12" width="50" height="55" rx="10" fill="url(#cjointGrad)" stroke="#94a3b8" stroke-width="2.5"/>
    <!-- Kingpin bearing top -->
    <circle cx="5" cy="-2" r="10" fill="#475569" stroke="#64748b" stroke-width="2"/>
    <circle cx="5" cy="-2" r="5" fill="#334155" stroke="#475569" stroke-width="1"/>
    <!-- Kingpin bearing bottom -->
    <circle cx="5" cy="32" r="10" fill="#475569" stroke="#64748b" stroke-width="2"/>
    <circle cx="5" cy="32" r="5" fill="#334155" stroke="#475569" stroke-width="1"/>
    <!-- C-joint highlight -->
    <line x1="-10" y1="2" x2="-10" y2="28" stroke="white" stroke-width="0.8" opacity="0.2"/>

    <!-- Vertical steering arm (going downward — flat bracket with holes) -->
    <path d="M -12,43 L -12,280 Q -12,295 -3,295 L 23,295 Q 32,295 32,280 L 32,43"
          fill="url(#spindleGrad)" stroke="#94a3b8" stroke-width="2"/>
    <!-- Steering arm highlight -->
    <line x1="2" y1="55" x2="2" y2="285" stroke="white" stroke-width="1" opacity="0.2"/>
    <line x1="8" y1="55" x2="8" y2="285" stroke="white" stroke-width="0.5" opacity="0.1"/>

    <!-- Mounting/tie rod holes in steering arm -->
    <circle cx="10" cy="90" r="8" fill="#334155" stroke="#475569" stroke-width="1.5"/>
    <circle cx="10" cy="130" r="8" fill="#334155" stroke="#475569" stroke-width="1.5"/>
    <circle cx="10" cy="170" r="8" fill="#334155" stroke="#475569" stroke-width="1.5"/>
    <circle cx="10" cy="210" r="7" fill="#334155" stroke="#475569" stroke-width="1.5"/>
    <circle cx="10" cy="245" r="6" fill="#334155" stroke="#475569" stroke-width="1.2"/>
    <circle cx="10" cy="275" r="5" fill="#334155" stroke="#475569" stroke-width="1"/>
  </g>

  <!-- ===== Labels with leader lines ===== -->

  <!-- Stub axle label -->
  <line x1="610" y1="80" x2="610" y2="97" stroke="#f97316" stroke-width="1.2" stroke-dasharray="3,2"/>
  <text x="610" y="75" fill="#e2e8f0" font-family="Arial, Helvetica, sans-serif" font-size="13" font-weight="bold" text-anchor="middle">STUB AXLE</text>
  <text x="610" y="145" fill="#64748b" font-family="Arial, Helvetica, sans-serif" font-size="10" text-anchor="middle">Hub mounts here</text>

  <!-- C-joint label -->
  <line x1="395" y1="115" x2="435" y2="115" stroke="#f97316" stroke-width="1.2" stroke-dasharray="3,2"/>
  <text x="385" y="110" fill="#e2e8f0" font-family="Arial, Helvetica, sans-serif" font-size="12" font-weight="bold" text-anchor="end">C-JOINT</text>
  <text x="385" y="125" fill="#64748b" font-family="Arial, Helvetica, sans-serif" font-size="10" text-anchor="end">Kingpin bearing</text>

  <!-- Steering arm label -->
  <line x1="415" y1="280" x2="445" y2="280" stroke="#f97316" stroke-width="1.2" stroke-dasharray="3,2"/>
  <text x="405" y="275" fill="#e2e8f0" font-family="Arial, Helvetica, sans-serif" font-size="12" font-weight="bold" text-anchor="end">STEERING ARM</text>
  <text x="405" y="290" fill="#64748b" font-family="Arial, Helvetica, sans-serif" font-size="10" text-anchor="end">Tie rod mounting holes</text>

  <!-- ===== Spindle Types legend ===== -->
  <rect x="30" y="75" width="230" height="340" rx="8" fill="#1e293b" stroke="#334155" stroke-width="1.5"/>
  <text x="145" y="103" fill="#e2e8f0" font-family="Arial, Helvetica, sans-serif" font-size="13" font-weight="bold" text-anchor="middle">SPINDLE TYPES</text>
  <line x1="50" y1="113" x2="240" y2="113" stroke="#334155" stroke-width="1"/>

  <!-- Blue -->
  <rect x="50" y="125" width="30" height="20" rx="4" fill="#3b82f6" stroke="#2563eb" stroke-width="1.5"/>
  <text x="92" y="140" fill="#94a3b8" font-family="Arial, Helvetica, sans-serif" font-size="12">Blue</text>

  <!-- Standard -->
  <rect x="50" y="160" width="30" height="20" rx="4" fill="#94a3b8" stroke="#64748b" stroke-width="1.5"/>
  <text x="92" y="175" fill="#94a3b8" font-family="Arial, Helvetica, sans-serif" font-size="12">Standard</text>

  <!-- Red -->
  <rect x="50" y="195" width="30" height="20" rx="4" fill="#ef4444" stroke="#dc2626" stroke-width="1.5"/>
  <text x="92" y="210" fill="#94a3b8" font-family="Arial, Helvetica, sans-serif" font-size="12">Red</text>

  <!-- Green -->
  <rect x="50" y="230" width="30" height="20" rx="4" fill="#22c55e" stroke="#16a34a" stroke-width="1.5"/>
  <text x="92" y="245" fill="#94a3b8" font-family="Arial, Helvetica, sans-serif" font-size="12">Green</text>

  <!-- Gold -->
  <rect x="50" y="265" width="30" height="20" rx="4" fill="#eab308" stroke="#ca8a04" stroke-width="1.5"/>
  <text x="92" y="280" fill="#94a3b8" font-family="Arial, Helvetica, sans-serif" font-size="12">Gold</text>

  <!-- Single Piece -->
  <rect x="50" y="300" width="30" height="20" rx="4" fill="#64748b" stroke="#475569" stroke-width="1.5"/>
  <line x1="55" y1="310" x2="75" y2="310" stroke="#94a3b8" stroke-width="1"/>
  <text x="92" y="315" fill="#94a3b8" font-family="Arial, Helvetica, sans-serif" font-size="12">Single Piece</text>

  <text x="145" y="355" fill="#475569" font-family="Arial, Helvetica, sans-serif" font-size="9" text-anchor="middle">Color-coded by manufacturer</text>

  <!-- Bottom bar -->
  <rect x="0" y="460" width="800" height="40" fill="rgba(0,0,0,0.5)"/>
  <text x="24" y="485" fill="#64748b" font-family="Arial, Helvetica, sans-serif" font-size="11">Spindle Types</text>
  <text x="700" y="485" fill="#475569" font-family="Arial, Helvetica, sans-serif" font-size="11" text-anchor="end">Setup Guide</text>
</svg>