<svg xmlns="http://www.w3.org/2000/svg" viewBox="0 0 800 500">
  <!-- Background -->
  <rect width="800" height="500" fill="#0f172a"/>
  <pattern id="grid" width="25" height="25" patternUnits="userSpaceOnUse">
    <path d="M 25 0 L 0 0 0 25" fill="none" stroke="#1e293b" stroke-width="0.5"/>
  </pattern>
  <rect width="800" height="500" fill="url(#grid)"/>

  <!-- Title bar -->
  <rect x="0" y="0" width="800" height="48" fill="rgba(0,0,0,0.6)"/>
  <text x="24" y="32" fill="#f97316" font-family="Arial, Helvetica, sans-serif" font-size="20" font-weight="bold">SPINDLE</text>
  <text x="140" y="32" fill="#94a3b8" font-family="Arial, Helvetica, sans-serif" font-size="14">Type Identification Guide</text>

  <!-- Central spindle illustration -->
  <!-- C-Joint housing -->
  <rect x="300" y="120" width="60" height="140" rx="8" fill="#334155" stroke="#475569" stroke-width="2"/>
  <text x="330" y="112" fill="#64748b" font-family="Arial, Helvetica, sans-serif" font-size="11" text-anchor="middle">C-JOINT</text>

  <!-- Spindle shaft extending down -->
  <rect x="318" y="260" width="24" height="100" rx="4" fill="#94a3b8" stroke="#cbd5e1" stroke-width="2"/>

  <!-- Spindle body (the colored part) -->
  <rect x="310" y="280" width="40" height="50" rx="6" fill="#f97316" opacity="0.3" stroke="#f97316" stroke-width="2.5"/>

  <!-- Arrow to spindle -->
  <line x1="400" y1="305" x2="355" y2="305" stroke="#f97316" stroke-width="2"/>
  <polygon points="355,300 355,310 345,305" fill="#f97316"/>
  <text x="410" y="310" fill="#f97316" font-family="Arial, Helvetica, sans-serif" font-size="14" font-weight="bold">SPINDLE</text>

  <!-- Wheel hub mount point -->
  <circle cx="330" cy="370" r="15" fill="#475569" stroke="#64748b" stroke-width="2"/>
  <circle cx="330" cy="370" r="5" fill="#334155"/>
  <text x="330" y="400" fill="#64748b" font-family="Arial, Helvetica, sans-serif" font-size="9" text-anchor="middle">WHEEL MOUNT</text>

  <!-- Spindle Types Grid -->
  <rect x="30" y="75" width="230" height="340" rx="8" fill="#1e293b" stroke="#334155" stroke-width="1.5"/>
  <text x="145" y="103" fill="#e2e8f0" font-family="Arial, Helvetica, sans-serif" font-size="13" font-weight="bold" text-anchor="middle">SPINDLE TYPES</text>
  <line x1="50" y1="113" x2="240" y2="113" stroke="#334155" stroke-width="1"/>

  <!-- Blue -->
  <rect x="50" y="125" width="30" height="20" rx="4" fill="#3b82f6" stroke="#2563eb" stroke-width="1.5"/>
  <text x="92" y="140" fill="#94a3b8" font-family="Arial, Helvetica, sans-serif" font-size="12">Blue</text>

  <!-- Standard -->
  <rect x="50" y="160" width="30" height="20" rx="4" fill="#94a3b8" stroke="#64748b" stroke-width="1.5"/>
  <text x="92" y="175" fill="#94a3b8" font-family="Arial, Helvetica, sans-serif" font-size="12">Standard</text>

  <!-- Red -->
  <rect x="50" y="195" width="30" height="20" rx="4" fill="#ef4444" stroke="#dc2626" stroke-width="1.5"/>
  <text x="92" y="210" fill="#94a3b8" font-family="Arial, Helvetica, sans-serif" font-size="12">Red</text>

  <!-- Green -->
  <rect x="50" y="230" width="30" height="20" rx="4" fill="#22c55e" stroke="#16a34a" stroke-width="1.5"/>
  <text x="92" y="245" fill="#94a3b8" font-family="Arial, Helvetica, sans-serif" font-size="12">Green</text>

  <!-- Gold -->
  <rect x="50" y="265" width="30" height="20" rx="4" fill="#eab308" stroke="#ca8a04" stroke-width="1.5"/>
  <text x="92" y="280" fill="#94a3b8" font-family="Arial, Helvetica, sans-serif" font-size="12">Gold</text>

  <!-- Single Piece -->
  <rect x="50" y="300" width="30" height="20" rx="4" fill="#64748b" stroke="#475569" stroke-width="1.5"/>
  <line x1="55" y1="310" x2="75" y2="310" stroke="#94a3b8" stroke-width="1"/>
  <text x="92" y="315" fill="#94a3b8" font-family="Arial, Helvetica, sans-serif" font-size="12">Single Piece</text>

  <text x="145" y="355" fill="#475569" font-family="Arial, Helvetica, sans-serif" font-size="9" text-anchor="middle">Color-coded by manufacturer</text>

  <!-- Bottom bar -->
  <rect x="0" y="460" width="800" height="40" fill="rgba(0,0,0,0.5)"/>
  <text x="24" y="485" fill="#64748b" font-family="Arial, Helvetica, sans-serif" font-size="11">Spindle Types</text>
  <text x="700" y="485" fill="#475569" font-family="Arial, Helvetica, sans-serif" font-size="11" text-anchor="end">Setup Guide</text>
</svg>